<svg width="41" height="40" viewBox="0 0 41 40" fill="none" xmlns="http://www.w3.org/2000/svg">
<g clip-path="url(#clip0_26_7406)">
<path d="M20.5 0C9.472 0 0.5 8.97212 0.5 20.0001C0.5 31.0281 9.472 40 20.5 40C31.528 40 40.5 31.0281 40.5 20.0001C40.5 8.97212 31.528 0 20.5 0ZM20.5 36.3636C11.477 36.3636 4.13636 29.023 4.13636 20.0001C4.13636 10.9772 11.477 3.63636 20.5 3.63636C29.523 3.63636 36.8636 10.9772 36.8636 20.0001C36.8636 29.023 29.5229 36.3636 20.5 36.3636Z" fill="#34C759"/>
<path d="M28.0728 13.5252L18.3728 23.6703L13.9272 19.0205C13.2576 18.3202 12.1719 18.3201 11.5022 19.0204C10.8326 19.7208 10.8326 20.8562 11.5022 21.5566L17.1603 27.4746C17.4819 27.811 17.918 28 18.3727 28H18.3728C18.8276 28 19.2637 27.811 19.5853 27.4748L30.4978 16.0616C31.1674 15.3612 31.1674 14.2257 30.4978 13.5254C29.8281 12.825 28.7425 12.8248 28.0728 13.5252Z" fill="#34C759"/>
</g>
<defs>
<clipPath id="clip0_26_7406">
<rect width="40" height="40" fill="white" transform="translate(0.5)"/>
</clipPath>
</defs>
</svg>
