<svg width="20" height="22" viewBox="0 0 20 22" fill="none" xmlns="http://www.w3.org/2000/svg">
<path d="M15.3242 7.92725C14.7737 7.92725 14.3276 8.37336 14.3276 8.92378C14.3276 9.4742 14.7737 9.92031 15.3242 9.92031C16.8034 9.92031 18.0065 11.1238 18.0065 12.6026V16.7552C18.0065 18.2344 16.8034 19.4375 15.3242 19.4375H4.67589C3.1967 19.4375 1.99355 18.2344 1.99355 16.7552V12.6026C1.99355 11.1235 3.19703 9.92031 4.67589 9.92031C5.2263 9.92031 5.67242 9.4742 5.67242 8.92378C5.67242 8.37336 5.2263 7.92725 4.67589 7.92725C2.09786 7.92725 0.000488281 10.0246 0.000488281 12.6026V16.7552C0.000488281 19.3332 2.09786 21.4306 4.67589 21.4306H15.3245C17.9025 21.4306 19.9999 19.3332 19.9999 16.7552V12.6026C19.9999 10.0246 17.9022 7.92725 15.3242 7.92725Z" fill="#767676"/>
<path d="M6.11081 6.36456C6.53832 6.71069 7.16614 6.64525 7.51226 6.21741L9.00341 4.37681V14.679C9.00341 15.2294 9.44952 15.6755 9.99994 15.6755C10.5504 15.6755 10.9965 15.2294 10.9965 14.679V4.37681L12.4873 6.21741C12.6843 6.46056 12.9719 6.58679 13.2623 6.58679C13.4825 6.58679 13.7044 6.51404 13.8891 6.36456C14.3166 6.0181 14.3824 5.39062 14.0359 4.9631L10.7742 0.936118C10.7676 0.928146 10.7596 0.922167 10.7527 0.914527C10.7231 0.880312 10.6912 0.848091 10.657 0.818195C10.644 0.806901 10.6321 0.794611 10.6188 0.783981C10.5733 0.747773 10.5248 0.714556 10.473 0.686321C10.4627 0.680674 10.4517 0.677352 10.4411 0.672037C10.4059 0.654432 10.3703 0.637158 10.3328 0.623871C10.3255 0.621214 10.3178 0.620217 10.3102 0.617892C10.2896 0.611249 10.2687 0.606598 10.2481 0.601283C10.2112 0.59165 10.1743 0.58401 10.1371 0.578695C10.1149 0.575706 10.0933 0.57338 10.071 0.571719C10.0325 0.569062 9.99463 0.569062 9.95643 0.570723C9.93583 0.571719 9.91557 0.571387 9.89497 0.573713C9.83884 0.579692 9.78303 0.589325 9.72888 0.604605C9.71693 0.607927 9.70563 0.613574 9.69367 0.61756C9.64916 0.631844 9.60565 0.649117 9.56313 0.669712C9.54519 0.678348 9.52792 0.688646 9.51031 0.698611C9.47244 0.719871 9.43624 0.743787 9.40136 0.770029C9.39206 0.777005 9.38143 0.781656 9.37246 0.788963C9.36681 0.793282 9.36316 0.799261 9.35751 0.803579C9.31732 0.837461 9.27978 0.874665 9.2449 0.915191C9.23925 0.921834 9.23228 0.927481 9.22663 0.934125C9.22663 0.935122 9.22597 0.935454 9.22564 0.936118L5.96399 4.9631C5.61753 5.39062 5.6833 6.0181 6.11081 6.36456Z" fill="#767676"/>
</svg>
