<svg width="24" height="24" viewBox="0 0 24 24" fill="none" xmlns="http://www.w3.org/2000/svg">
<rect width="24" height="24" rx="12" fill="#D9A275"/>
<path fill-rule="evenodd" clip-rule="evenodd" d="M19 8.2228C19 7.2386 18.3161 6.3867 17.3557 6.1732C15.5511 5.7721 12.1519 5.0168 12.1519 5.0168C12.0518 4.9944 11.9482 4.9944 11.8481 5.0168C11.8481 5.0168 8.4489 5.7721 6.6443 6.1732C5.6839 6.3867 5 7.2386 5 8.2228V15.7772C5 16.7614 5.6839 17.6133 6.6443 17.8268C8.4489 18.2279 11.8481 18.9832 11.8481 18.9832C11.9482 19.0056 12.0518 19.0056 12.1519 18.9832C12.1519 18.9832 15.5511 18.2279 17.3557 17.8268C18.3161 17.6133 19 16.7614 19 15.7772V8.2228ZM6.4 13.6892V15.7772C6.4 16.1048 6.6282 16.389 6.9481 16.4604L12 17.5832L17.0519 16.4604C17.3718 16.389 17.6 16.1048 17.6 15.7772V13.6892L12 12.4446L6.4 13.6892ZM6.4 10.4614V12.2549L11.8481 11.0446C11.9482 11.0222 12.0518 11.0222 12.1519 11.0446L17.6 12.2549V10.4614L12 9.2168L6.4 10.4614ZM17.6 9.0271V8.2228C17.6 7.8952 17.3718 7.611 17.0519 7.5396L12 6.4168L6.9481 7.5396C6.6282 7.611 6.4 7.8952 6.4 8.2228V9.0271L11.8481 7.8168C11.9482 7.7944 12.0518 7.7944 12.1519 7.8168L17.6 9.0271Z" fill="white"/>
</svg>
