<svg width="41" height="40" viewBox="0 0 41 40" fill="none" xmlns="http://www.w3.org/2000/svg">
<g clip-path="url(#clip0_26_7351)">
<path d="M20.5 0C9.472 0 0.5 8.97212 0.5 20.0001C0.5 31.0281 9.472 40 20.5 40C31.528 40 40.5 31.0281 40.5 20.0001C40.5 8.97212 31.528 0 20.5 0ZM20.5 36.3636C11.477 36.3636 4.13636 29.023 4.13636 20.0001C4.13636 10.9772 11.477 3.63636 20.5 3.63636C29.523 3.63636 36.8636 10.9772 36.8636 20.0001C36.8636 29.023 29.5229 36.3636 20.5 36.3636Z" fill="#D9A275"/>
<path d="M20.4999 8.48486C19.1634 8.48486 18.0762 9.57286 18.0762 10.9102C18.0762 12.2463 19.1634 13.3333 20.4999 13.3333C21.8364 13.3333 22.9237 12.2463 22.9237 10.9102C22.9237 9.57286 21.8364 8.48486 20.4999 8.48486Z" fill="#D9A275"/>
<path d="M20.4998 16.9697C19.4957 16.9697 18.6816 17.7838 18.6816 18.7879V29.697C18.6816 30.7011 19.4957 31.5152 20.4998 31.5152C21.5039 31.5152 22.318 30.7011 22.318 29.697V18.7879C22.318 17.7838 21.5039 16.9697 20.4998 16.9697Z" fill="#D9A275"/>
</g>
<defs>
<clipPath id="clip0_26_7351">
<rect width="40" height="40" fill="white" transform="translate(0.5)"/>
</clipPath>
</defs>
</svg>
