<svg width="24" height="24" viewBox="0 0 24 24" fill="none" xmlns="http://www.w3.org/2000/svg">
<rect width="24" height="24" rx="6" fill="#D9A275"/>
<path d="M11.9002 11.0033C11.9657 11.0197 12.0343 11.0197 12.0998 11.0033L19 9.28505V8.2165L12.2996 9.88511C12.2016 9.90947 12.1009 9.92186 12 9.92186C11.8991 9.92186 11.7984 9.90947 11.7005 9.88511L5 8.2165V9.28505L11.9002 11.0033Z" fill="white"/>
<path d="M12 11.8233L5 10.0802V16.9492C5 17.1374 5.12857 17.3015 5.31193 17.3471L6.92157 17.748V13.873C6.92157 13.7467 6.98001 13.6275 7.07995 13.5497C7.17989 13.472 7.31017 13.4445 7.43316 13.4752L10.1783 14.1588C10.3616 14.2044 10.4902 14.3684 10.4902 14.5566V18.6366L11.9002 18.9877C11.9329 18.9959 11.9664 19 12 19C12.0336 19 12.0671 18.9959 12.0998 18.9877L18.6881 17.3471C18.8714 17.3015 19 17.1374 19 16.9492V10.0802L12 11.8233Z" fill="white"/>
<path d="M12 9.10154C11.9664 9.10154 11.9329 9.09748 11.9002 9.08926L5.31193 7.44863C5.12857 7.40302 5 7.23896 5 7.05076C5 6.86256 5.12857 6.69849 5.31193 6.65288L11.9002 5.01226C11.9657 4.99591 12.0343 4.99591 12.0998 5.01226L18.6881 6.65288C18.8714 6.69849 19 6.86256 19 7.05076C19 7.23896 18.8714 7.40302 18.6881 7.44863L12.0998 9.08926C12.0671 9.09748 12.0336 9.10154 12 9.10154Z" fill="white"/>
<path d="M7.7451 17.953L9.66667 18.4315V14.8769L7.7451 14.3983V17.953Z" fill="white"/>
</svg>
