<svg width="24" height="24" viewBox="0 0 24 24" fill="none" xmlns="http://www.w3.org/2000/svg">
<rect width="24" height="24" rx="12" fill="#D9A275"/>
<path fill-rule="evenodd" clip-rule="evenodd" d="M11.75 12.0625C12.6129 12.0625 13.3125 11.3629 13.3125 10.5C13.3125 9.63706 12.6129 8.9375 11.75 8.9375C10.8871 8.9375 10.1875 9.63706 10.1875 10.5C10.1875 11.3629 10.8871 12.0625 11.75 12.0625ZM11.75 13C13.1307 13 14.25 11.8807 14.25 10.5C14.25 9.11929 13.1307 8 11.75 8C10.3693 8 9.25 9.11929 9.25 10.5C9.25 11.8807 10.3693 13 11.75 13Z" fill="white"/>
<path fill-rule="evenodd" clip-rule="evenodd" d="M11.75 8.25C10.5074 8.25 9.5 9.25736 9.5 10.5C9.5 11.7426 10.5074 12.75 11.75 12.75C12.9926 12.75 14 11.7426 14 10.5C14 9.25736 12.9926 8.25 11.75 8.25ZM9 10.5C9 8.98122 10.2312 7.75 11.75 7.75C13.2688 7.75 14.5 8.98122 14.5 10.5C14.5 12.0188 13.2688 13.25 11.75 13.25C10.2312 13.25 9 12.0188 9 10.5ZM11.75 9.1875C11.0251 9.1875 10.4375 9.77513 10.4375 10.5C10.4375 11.2249 11.0251 11.8125 11.75 11.8125C12.4749 11.8125 13.0625 11.2249 13.0625 10.5C13.0625 9.77513 12.4749 9.1875 11.75 9.1875ZM9.9375 10.5C9.9375 9.49898 10.749 8.6875 11.75 8.6875C12.751 8.6875 13.5625 9.49898 13.5625 10.5C13.5625 11.501 12.751 12.3125 11.75 12.3125C10.749 12.3125 9.9375 11.501 9.9375 10.5Z" fill="white"/>
<path fill-rule="evenodd" clip-rule="evenodd" d="M14.3925 15.9691C16.1453 14.1569 17.5114 12.6745 17.5143 10.4666C17.5101 7.62773 15.0371 5.2 11.8572 5.2C8.67754 5.2 6.20425 7.62745 6.2 10.4685C6.20283 12.6744 7.56874 14.1567 9.32179 15.9692L8.45925 16.8035C6.75994 15.0466 5.00283 13.2299 5 10.4684C5.00437 6.90082 8.08047 4 11.8572 4C15.6339 4 18.71 6.90082 18.7143 10.4664C18.7115 13.2299 16.9543 15.0465 15.255 16.8034C14.4244 17.6623 13.565 18.5508 12.8873 19.563C12.7053 19.835 12.3882 20 12.0473 20H11.667C11.3261 20 11.0091 19.835 10.8269 19.5631C10.1491 18.5507 9.29004 17.6624 8.45925 16.8035L9.32179 15.9692L9.35324 16.0017C10.1402 16.8153 11.0326 17.7379 11.7595 18.8H11.9548C12.6813 17.7383 13.5734 16.816 14.36 16.0028L14.3925 15.9691Z" fill="white"/>
<path d="M9.32179 15.9692C7.56874 14.1567 6.20283 12.6744 6.2 10.4685C6.20425 7.62745 8.67754 5.2 11.8572 5.2C15.0371 5.2 17.5101 7.62773 17.5143 10.4666C17.5114 12.6745 16.1453 14.1569 14.3925 15.9691L14.36 16.0028C13.5734 16.816 12.6813 17.7383 11.9548 18.8H11.7595C11.0326 17.7379 10.1402 16.8153 9.35324 16.0017L9.32179 15.9692ZM9.32179 15.9692L8.45925 16.8035M8.45925 16.8035C6.75994 15.0466 5.00283 13.2299 5 10.4684C5.00437 6.90082 8.08047 4 11.8572 4C15.6339 4 18.71 6.90082 18.7143 10.4664C18.7115 13.2299 16.9543 15.0465 15.255 16.8034C14.4244 17.6623 13.565 18.5508 12.8873 19.563C12.7053 19.835 12.3882 20 12.0473 20H11.667C11.3261 20 11.0091 19.835 10.8269 19.5631C10.1491 18.5507 9.29004 17.6624 8.45925 16.8035Z" stroke="white" stroke-width="0.5"/>
</svg>
