<svg width="24" height="24" viewBox="0 0 24 24" fill="none" xmlns="http://www.w3.org/2000/svg">
<rect width="24" height="24" rx="12" fill="#D9A275"/>
<path d="M6.3261 11.3052C5.83079 11.3052 5.38602 11.7399 5.38602 12.2554C5.39107 12.776 5.83585 13.2107 6.32105 13.2107L11.3052 13.2107L11.3052 18.1848C11.3052 18.6902 11.7399 19.1248 12.2554 19.1248C12.776 19.1198 13.2056 18.6902 13.2056 18.1848L13.2056 13.2107L18.1848 13.2056C18.6902 13.2056 19.1299 12.776 19.1248 12.2554C19.1248 11.7399 18.6902 11.3052 18.1848 11.3052L13.2107 11.3052L13.2056 6.3261C13.2107 5.83585 12.776 5.38097 12.2554 5.38602C11.7399 5.38602 11.3002 5.83584 11.3052 6.3261L11.3002 11.3052L6.3261 11.3052Z" fill="white"/>
</svg>
