<svg width="22" height="19" viewBox="0 0 22 19" fill="none" xmlns="http://www.w3.org/2000/svg">
<path d="M8.5 11C7.4122 11 6.34884 10.6774 5.44437 10.0731C4.5399 9.46873 3.83495 8.60975 3.41866 7.60476C3.00238 6.59977 2.89346 5.4939 3.10568 4.427C3.3179 3.36011 3.84173 2.3801 4.61092 1.61091C5.3801 0.841726 6.36011 0.317902 7.427 0.105683C8.4939 -0.106535 9.59977 0.00238307 10.6048 0.418665C11.6098 0.834947 12.4687 1.5399 13.0731 2.44437C13.6774 3.34884 14 4.4122 14 5.5C13.9984 6.9582 13.4184 8.35622 12.3873 9.38732C11.3562 10.4184 9.9582 10.9984 8.5 11ZM8.5 1.83334C7.7748 1.83334 7.06589 2.04838 6.46291 2.45128C5.85993 2.85418 5.38996 3.42683 5.11244 4.09683C4.83492 4.76682 4.76231 5.50407 4.90379 6.21533C5.04527 6.9266 5.39448 7.57993 5.90728 8.09273C6.42007 8.60552 7.07341 8.95473 7.78467 9.09621C8.49593 9.23769 9.23318 9.16508 9.90317 8.88756C10.5732 8.61004 11.1458 8.14007 11.5487 7.53709C11.9516 6.93411 12.1667 6.2252 12.1667 5.5C12.1656 4.52788 11.7789 3.59588 11.0915 2.90848C10.4041 2.22109 9.47213 1.83443 8.5 1.83334Z" fill="#767676"/>
<path d="M0 16.1112V17.5278C0 18.0187 0.456556 18.4167 0.947476 18.4167C1.4384 18.4167 1.77778 18.0187 1.77778 17.5278V16.1112C1.77844 15.5072 2.01136 14.9283 2.42545 14.5012C2.83954 14.0742 3.40097 13.834 3.98658 13.8333C4.2415 13.8417 4.49174 13.9062 4.72044 14.0226C5.7518 14.4998 6.86939 14.7464 7.99978 14.7464C9.13016 14.7464 10.2478 14.4998 11.2791 14.0226C11.508 13.9062 11.7584 13.8417 12.0134 13.8333C12.599 13.834 13.1605 14.0742 13.5746 14.5012C13.9886 14.9283 14.2216 15.5072 14.2222 16.1112V17.5278C14.2222 18.0187 14.4869 18.4167 14.9778 18.4167C15.4687 18.4167 16 18.0187 16 17.5278V16.1112C15.9988 15.0212 15.5784 13.9762 14.831 13.2055C14.0837 12.4348 13.0704 12.0012 12.0134 12C11.5045 12.0082 11.0032 12.1289 10.5434 12.354C9.74317 12.7232 8.87641 12.914 7.99978 12.914C7.12315 12.914 6.25639 12.7232 5.45618 12.354C4.99655 12.1288 4.49538 12.0081 3.98658 12C2.92964 12.0012 1.91634 12.4348 1.16897 13.2055C0.421598 13.9762 0.00119985 15.0212 0 16.1112Z" fill="#767676"/>
<path fill-rule="evenodd" clip-rule="evenodd" d="M19.1513 13.9791C18.689 13.6921 18.2915 13.1759 18.4235 12.648C18.5339 12.2063 18.9692 11.9128 19.3944 12.0751C19.929 12.2792 20.4202 12.601 20.831 13.0246C21.5784 13.7954 21.9988 14.8403 22 15.9303V17.3469C22 17.8378 21.4687 18.2358 20.9778 18.2358C20.4869 18.2358 20.2222 17.8378 20.2222 17.3469V15.9303C20.2216 15.3264 19.9886 14.7474 19.5746 14.3204C19.4464 14.1882 19.3041 14.0739 19.1513 13.9791ZM15.7902 8.75132C15.352 8.91604 15 9.3003 15 9.76842C15 10.3199 15.4782 10.7585 16.0084 10.6068C16.8996 10.3518 17.7202 9.87354 18.3873 9.20646C19.4184 8.17535 19.9984 6.77734 20 5.31914C20 4.23134 19.6774 3.16798 19.0731 2.2635C18.4687 1.35903 17.6098 0.654086 16.6048 0.237804C16.4097 0.156993 16.2108 0.0877654 16.0091 0.030221C15.4783 -0.12123 15 0.317953 15 0.869923C15 1.33841 15.3521 1.7231 15.7905 1.88833C16.2743 2.0707 16.7189 2.35497 17.0915 2.72762C17.7789 3.41502 18.1656 4.34702 18.1667 5.31914C18.1667 6.04434 17.9516 6.75325 17.5487 7.35623C17.1458 7.95921 16.5732 8.42918 15.9032 8.7067C15.8657 8.72221 15.8281 8.73709 15.7902 8.75132Z" fill="#767676"/>
</svg>
