<svg width="24" height="24" viewBox="0 0 24 24" fill="none" xmlns="http://www.w3.org/2000/svg">
<path d="M9.5 14C8.4122 14 7.34884 13.6774 6.44437 13.0731C5.5399 12.4687 4.83495 11.6098 4.41866 10.6048C4.00238 9.59977 3.89346 8.4939 4.10568 7.427C4.3179 6.36011 4.84173 5.3801 5.61092 4.61091C6.3801 3.84173 7.36011 3.3179 8.427 3.10568C9.4939 2.89346 10.5998 3.00238 11.6048 3.41866C12.6098 3.83495 13.4687 4.5399 14.0731 5.44437C14.6774 6.34884 15 7.4122 15 8.5C14.9984 9.9582 14.4184 11.3562 13.3873 12.3873C12.3562 13.4184 10.9582 13.9984 9.5 14ZM9.5 4.83334C8.7748 4.83334 8.06589 5.04838 7.46291 5.45128C6.85993 5.85418 6.38996 6.42683 6.11244 7.09683C5.83492 7.76682 5.76231 8.50407 5.90379 9.21533C6.04527 9.9266 6.39448 10.5799 6.90728 11.0927C7.42007 11.6055 8.07341 11.9547 8.78467 12.0962C9.49593 12.2377 10.2332 12.1651 10.9032 11.8876C11.5732 11.61 12.1458 11.1401 12.5487 10.5371C12.9516 9.93411 13.1667 9.2252 13.1667 8.5C13.1656 7.52788 12.7789 6.59588 12.0915 5.90848C11.4041 5.22109 10.4721 4.83443 9.5 4.83334Z" fill="#767676"/>
<path d="M1 19.1112V20.5278C1 21.0187 1.45656 21.4167 1.94748 21.4167C2.4384 21.4167 2.77778 21.0187 2.77778 20.5278V19.1112C2.77844 18.5072 3.01136 17.9283 3.42545 17.5012C3.83954 17.0742 4.40097 16.834 4.98658 16.8333C5.2415 16.8417 5.49174 16.9062 5.72044 17.0226C6.7518 17.4998 7.86939 17.7464 8.99978 17.7464C10.1302 17.7464 11.2478 17.4998 12.2791 17.0226C12.508 16.9062 12.7584 16.8417 13.0134 16.8333C13.599 16.834 14.1605 17.0742 14.5746 17.5012C14.9886 17.9283 15.2216 18.5072 15.2222 19.1112V20.5278C15.2222 21.0187 15.4869 21.4167 15.9778 21.4167C16.4687 21.4167 17 21.0187 17 20.5278V19.1112C16.9988 18.0212 16.5784 16.9762 15.831 16.2055C15.0837 15.4348 14.0704 15.0012 13.0134 15C12.5045 15.0082 12.0032 15.1289 11.5434 15.354C10.7432 15.7232 9.87641 15.914 8.99978 15.914C8.12315 15.914 7.25639 15.7232 6.45618 15.354C5.99655 15.1288 5.49538 15.0081 4.98658 15C3.92964 15.0012 2.91634 15.4348 2.16897 16.2055C1.4216 16.9762 1.0012 18.0212 1 19.1112Z" fill="#767676"/>
<path fill-rule="evenodd" clip-rule="evenodd" d="M20.1513 16.9791C19.689 16.6921 19.2915 16.1759 19.4235 15.648C19.5339 15.2063 19.9692 14.9128 20.3944 15.0751C20.929 15.2792 21.4202 15.601 21.831 16.0246C22.5784 16.7954 22.9988 17.8403 23 18.9303V20.3469C23 20.8378 22.4687 21.2358 21.9778 21.2358C21.4869 21.2358 21.2222 20.8378 21.2222 20.3469V18.9303C21.2216 18.3264 20.9886 17.7474 20.5746 17.3204C20.4464 17.1882 20.3041 17.0739 20.1513 16.9791ZM16.7902 11.7513C16.352 11.916 16 12.3003 16 12.7684C16 13.3199 16.4782 13.7585 17.0084 13.6068C17.8996 13.3518 18.7202 12.8735 19.3873 12.2065C20.4184 11.1754 20.9984 9.77734 21 8.31914C21 7.23134 20.6774 6.16798 20.0731 5.2635C19.4687 4.35903 18.6098 3.65409 17.6048 3.2378C17.4097 3.15699 17.2108 3.08777 17.0091 3.03022C16.4783 2.87877 16 3.31795 16 3.86992C16 4.33841 16.3521 4.7231 16.7905 4.88833C17.2743 5.0707 17.7189 5.35497 18.0915 5.72762C18.7789 6.41502 19.1656 7.34702 19.1667 8.31914C19.1667 9.04434 18.9516 9.75325 18.5487 10.3562C18.1458 10.9592 17.5732 11.4292 16.9032 11.7067C16.8657 11.7222 16.8281 11.7371 16.7902 11.7513Z" fill="#767676"/>
</svg>
