<svg width="24" height="24" viewBox="0 0 24 24" fill="none" xmlns="http://www.w3.org/2000/svg">
<rect width="24" height="24" rx="12" fill="#D9A275"/>
<path d="M18.2802 7.31826C18.067 7.225 17.8322 7.20048 17.6058 7.24784C17.3793 7.29519 17.1714 7.41227 17.0085 7.58417L15.5 9.1686L12.8248 6.35878C12.6061 6.12905 12.3094 6 12 6C11.6906 6 11.3939 6.12905 11.1752 6.35878L8.5 9.1686L6.9915 7.58417C6.82834 7.41285 6.62048 7.29618 6.3942 7.24892C6.16793 7.20166 5.93339 7.22593 5.72024 7.31865C5.50709 7.41138 5.3249 7.5684 5.1967 7.76987C5.0685 7.97133 5.00005 8.2082 5 8.45052V14.9365C5.00093 15.7487 5.30851 16.5274 5.85529 17.1017C6.40208 17.676 7.1434 17.999 7.91667 18H16.0833C16.8566 17.999 17.5979 17.676 18.1447 17.1017C18.6915 16.5274 18.9991 15.7487 19 14.9365V8.45052C19.0001 8.20818 18.9317 7.97126 18.8036 7.76972C18.6754 7.56819 18.4933 7.41108 18.2802 7.31826ZM17.8333 14.9365C17.8333 15.424 17.649 15.8915 17.3208 16.2362C16.9926 16.581 16.5475 16.7746 16.0833 16.7746H7.91667C7.45254 16.7746 7.00742 16.581 6.67923 16.2362C6.35104 15.8915 6.16667 15.424 6.16667 14.9365V8.45052L8.08758 10.4681C8.19697 10.583 8.34532 10.6475 8.5 10.6475C8.65468 10.6475 8.80303 10.583 8.91242 10.4681L12 7.22513L15.0876 10.4681C15.197 10.583 15.3453 10.6475 15.5 10.6475C15.6547 10.6475 15.803 10.583 15.9124 10.4681L17.8333 8.45052V14.9365Z" fill="white" stroke="white" stroke-width="0.5"/>
<rect x="8.5" y="13.5" width="7" height="1.125" rx="0.5625" fill="white" stroke="white" stroke-width="0.5"/>
</svg>
