<svg width="24" height="24" viewBox="0 0 24 24" fill="none" xmlns="http://www.w3.org/2000/svg">
<rect width="24" height="24" rx="12" fill="#D9A275"/>
<path fill-rule="evenodd" clip-rule="evenodd" d="M12 6.05C8.71352 6.05 6.05 8.71352 6.05 12C6.05 15.2865 8.71352 17.95 12 17.95C15.2865 17.95 17.95 15.2865 17.95 12C17.95 8.71352 15.2865 6.05 12 6.05ZM5 12C5 8.13362 8.13362 5 12 5C15.8664 5 19 8.13362 19 12C19 15.8664 15.8664 19 12 19C8.13362 19 5 15.8664 5 12Z" fill="white" stroke="white" stroke-width="0.5"/>
<path d="M11.4256 10.7403C11.0918 10.8286 10.8292 11.0907 10.7407 11.4249C10.7407 11.4249 10.7407 11.4249 10.7407 11.425L10.1907 13.5006L10.0802 13.9179L10.4972 13.806L12.5674 13.2507L12.5678 13.2506L12.5682 13.2505L12.5685 13.2504L12.5685 13.2504L12.5687 13.2504L12.5688 13.2504L12.5688 13.2504L12.569 13.2503C12.9008 13.161 13.1609 12.9014 13.2503 12.5692L13.2503 12.569L13.8061 10.4968L13.9179 10.0798L13.5006 10.1904L11.4256 10.7403ZM11.4256 10.7403L11.4895 10.9819M11.4256 10.7403L11.4255 10.7403L11.4895 10.9819M11.4895 10.9819C11.2425 11.0473 11.0478 11.2417 10.9824 11.4889L10.5062 13.2859L11.4895 10.9819ZM9.40789 14.7453L9.40779 14.7454C9.31438 14.7705 9.23014 14.6845 9.25459 14.5935L9.25481 14.5927L10.1365 11.2652L10.1365 11.2651C10.2824 10.7139 10.7142 10.282 11.2653 10.1362L11.2654 10.1361L14.5924 9.2545C14.5925 9.25449 14.5925 9.25448 14.5925 9.25448C14.6858 9.22996 14.77 9.31561 14.7454 9.40745L14.7453 9.40755L13.854 12.7308C13.854 12.7309 13.854 12.7309 13.854 12.7309C13.7069 13.2786 13.2787 13.7068 12.731 13.8539C12.731 13.8539 12.731 13.8539 12.731 13.854L9.40789 14.7453ZM12.3157 13.1733C12.3045 13.1359 12.2999 13.099 12.3001 13.0636L12.3446 13.0516C12.3795 13.1508 12.45 13.2265 12.4943 13.2505C12.4483 13.2403 12.3744 13.2167 12.3157 13.1733ZM12.6084 13.2351C12.6223 13.2228 12.6592 13.1696 12.684 13.0952C12.6828 13.1304 12.6757 13.1668 12.6609 13.2035C12.6439 13.2156 12.6226 13.2277 12.6084 13.2351ZM12.5915 13.243C12.5931 13.2424 12.5949 13.2417 12.5968 13.241C12.596 13.2413 12.5953 13.2416 12.5948 13.2418L12.5915 13.243ZM12.5828 13.2461L12.5845 13.2456L12.5839 13.2458L12.5828 13.2461ZM12.5362 13.2568C12.5357 13.2569 12.5349 13.2569 12.534 13.2569C12.5382 13.2564 12.5421 13.2559 12.5449 13.2555C12.542 13.2559 12.5388 13.2565 12.5362 13.2568ZM12.5521 13.2542C12.5516 13.2543 12.551 13.2544 12.5502 13.2546L12.5546 13.2537L12.5521 13.2542Z" fill="white" stroke="white" stroke-width="0.5"/>
</svg>
