<svg width="68" height="12" viewBox="0 0 68 12" fill="none" xmlns="http://www.w3.org/2000/svg">
<g clip-path="url(#clip0_25_6221)">
<path d="M7.87986 3.86514C7.85114 3.86742 7.82252 3.85971 7.79883 3.84331C7.77514 3.82691 7.75784 3.80283 7.74986 3.77514C6.87486 0.705144 6.44486 0.510144 6.24986 0.425144C6.18405 0.394684 6.11239 0.378906 6.03986 0.378906C5.96734 0.378906 5.89568 0.394684 5.82986 0.425144C5.32986 0.665144 4.91486 1.69514 4.32986 3.52014L4.24486 3.78014C4.23883 3.8076 4.22252 3.83171 4.19928 3.84752C4.17603 3.86332 4.14761 3.86963 4.11986 3.86514C1.03486 3.69014 0.879863 3.84014 0.739863 3.97014C0.661183 4.04877 0.614804 4.15402 0.609863 4.26514C0.609863 4.99014 1.54986 5.70514 2.37986 6.33514C2.62486 6.52514 2.87986 6.70514 3.00986 6.83514C3.02616 6.85 3.03805 6.86906 3.04422 6.89023C3.0504 6.9114 3.05062 6.93386 3.04486 6.95514C2.98486 7.18014 2.89486 7.48014 2.79986 7.81514C2.46709 8.77157 2.23582 9.76034 2.10986 10.7651C2.10893 10.8475 2.13088 10.9285 2.17325 10.9991C2.21562 11.0697 2.27676 11.1272 2.34986 11.1651C2.57486 11.2801 2.87986 11.4351 5.90986 9.27514C5.9313 9.26074 5.95654 9.25305 5.98236 9.25305C6.00819 9.25305 6.03343 9.26074 6.05486 9.27514C8.34986 10.9201 9.08486 11.2251 9.40486 11.2251C9.48074 11.2257 9.55523 11.2049 9.61986 11.1651C9.69372 11.1281 9.75551 11.0709 9.79802 11C9.84052 10.9292 9.86197 10.8477 9.85986 10.7651C9.73385 9.75872 9.50258 8.7683 9.16986 7.81014C9.07486 7.48014 8.98487 7.18014 8.92486 6.96014C8.91923 6.93807 8.9195 6.9149 8.92565 6.89296C8.93179 6.87102 8.94359 6.85109 8.95986 6.83514C9.10986 6.70514 9.33486 6.53014 9.57486 6.33514C10.4099 5.69514 11.3599 4.97514 11.3599 4.24514C11.3562 4.13227 11.3097 4.02503 11.2299 3.94514C11.0999 3.83014 10.9199 3.66514 7.87986 3.86514Z" fill="#D9A275"/>
</g>
<g clip-path="url(#clip1_25_6221)">
<path d="M21.8799 3.86514C21.8511 3.86742 21.8225 3.85971 21.7988 3.84331C21.7751 3.82691 21.7578 3.80283 21.7499 3.77514C20.8749 0.705144 20.4449 0.510144 20.2499 0.425144C20.184 0.394684 20.1124 0.378906 20.0399 0.378906C19.9673 0.378906 19.8957 0.394684 19.8299 0.425144C19.3299 0.665144 18.9149 1.69514 18.3299 3.52014L18.2449 3.78014C18.2388 3.8076 18.2225 3.83171 18.1993 3.84752C18.176 3.86332 18.1476 3.86963 18.1199 3.86514C15.0349 3.69014 14.8799 3.84014 14.7399 3.97014C14.6612 4.04877 14.6148 4.15402 14.6099 4.26514C14.6099 4.99014 15.5499 5.70514 16.3799 6.33514C16.6249 6.52514 16.8799 6.70514 17.0099 6.83514C17.0262 6.85 17.038 6.86906 17.0442 6.89023C17.0504 6.9114 17.0506 6.93386 17.0449 6.95514C16.9849 7.18014 16.8949 7.48014 16.7999 7.81514C16.4671 8.77157 16.2358 9.76034 16.1099 10.7651C16.1089 10.8475 16.1309 10.9285 16.1733 10.9991C16.2156 11.0697 16.2768 11.1272 16.3499 11.1651C16.5749 11.2801 16.8799 11.4351 19.9099 9.27514C19.9313 9.26074 19.9565 9.25305 19.9824 9.25305C20.0082 9.25305 20.0334 9.26074 20.0549 9.27514C22.3499 10.9201 23.0849 11.2251 23.4049 11.2251C23.4807 11.2257 23.5552 11.2049 23.6199 11.1651C23.6937 11.1281 23.7555 11.0709 23.798 11C23.8405 10.9292 23.862 10.8477 23.8599 10.7651C23.7338 9.75872 23.5026 8.7683 23.1699 7.81014C23.0749 7.48014 22.9849 7.18014 22.9249 6.96014C22.9192 6.93807 22.9195 6.9149 22.9256 6.89296C22.9318 6.87102 22.9436 6.85109 22.9599 6.83514C23.1099 6.70514 23.3349 6.53014 23.5749 6.33514C24.4099 5.69514 25.3599 4.97514 25.3599 4.24514C25.3562 4.13227 25.3097 4.02503 25.2299 3.94514C25.0999 3.83014 24.9199 3.66514 21.8799 3.86514Z" fill="#D9A275"/>
</g>
<g clip-path="url(#clip2_25_6221)">
<path d="M35.8799 3.86514C35.8511 3.86742 35.8225 3.85971 35.7988 3.84331C35.7751 3.82691 35.7578 3.80283 35.7499 3.77514C34.8749 0.705144 34.4449 0.510144 34.2499 0.425144C34.184 0.394684 34.1124 0.378906 34.0399 0.378906C33.9673 0.378906 33.8957 0.394684 33.8299 0.425144C33.3299 0.665144 32.9149 1.69514 32.3299 3.52014L32.2449 3.78014C32.2388 3.8076 32.2225 3.83171 32.1993 3.84752C32.176 3.86332 32.1476 3.86963 32.1199 3.86514C29.0349 3.69014 28.8799 3.84014 28.7399 3.97014C28.6612 4.04877 28.6148 4.15402 28.6099 4.26514C28.6099 4.99014 29.5499 5.70514 30.3799 6.33514C30.6249 6.52514 30.8799 6.70514 31.0099 6.83514C31.0262 6.85 31.038 6.86906 31.0442 6.89023C31.0504 6.9114 31.0506 6.93386 31.0449 6.95514C30.9849 7.18014 30.8949 7.48014 30.7999 7.81514C30.4671 8.77157 30.2358 9.76034 30.1099 10.7651C30.1089 10.8475 30.1309 10.9285 30.1733 10.9991C30.2156 11.0697 30.2768 11.1272 30.3499 11.1651C30.5749 11.2801 30.8799 11.4351 33.9099 9.27514C33.9313 9.26074 33.9565 9.25305 33.9824 9.25305C34.0082 9.25305 34.0334 9.26074 34.0549 9.27514C36.3499 10.9201 37.0849 11.2251 37.4049 11.2251C37.4807 11.2257 37.5552 11.2049 37.6199 11.1651C37.6937 11.1281 37.7555 11.0709 37.798 11C37.8405 10.9292 37.862 10.8477 37.8599 10.7651C37.7338 9.75872 37.5026 8.7683 37.1699 7.81014C37.0749 7.48014 36.9849 7.18014 36.9249 6.96014C36.9192 6.93807 36.9195 6.9149 36.9256 6.89296C36.9318 6.87102 36.9436 6.85109 36.9599 6.83514C37.1099 6.70514 37.3349 6.53014 37.5749 6.33514C38.4099 5.69514 39.3599 4.97514 39.3599 4.24514C39.3562 4.13227 39.3097 4.02503 39.2299 3.94514C39.0999 3.83014 38.9199 3.66514 35.8799 3.86514Z" fill="#D9A275"/>
</g>
<g clip-path="url(#clip3_25_6221)">
<path d="M49.8799 3.86514C49.8511 3.86742 49.8225 3.85971 49.7988 3.84331C49.7751 3.82691 49.7578 3.80283 49.7499 3.77514C48.8749 0.705144 48.4449 0.510144 48.2499 0.425144C48.184 0.394684 48.1124 0.378906 48.0399 0.378906C47.9673 0.378906 47.8957 0.394684 47.8299 0.425144C47.3299 0.665144 46.9149 1.69514 46.3299 3.52014L46.2449 3.78014C46.2388 3.8076 46.2225 3.83171 46.1993 3.84752C46.176 3.86332 46.1476 3.86963 46.1199 3.86514C43.0349 3.69014 42.8799 3.84014 42.7399 3.97014C42.6612 4.04877 42.6148 4.15402 42.6099 4.26514C42.6099 4.99014 43.5499 5.70514 44.3799 6.33514C44.6249 6.52514 44.8799 6.70514 45.0099 6.83514C45.0262 6.85 45.038 6.86906 45.0442 6.89023C45.0504 6.9114 45.0506 6.93386 45.0449 6.95514C44.9849 7.18014 44.8949 7.48014 44.7999 7.81514C44.4671 8.77157 44.2358 9.76034 44.1099 10.7651C44.1089 10.8475 44.1309 10.9285 44.1733 10.9991C44.2156 11.0697 44.2768 11.1272 44.3499 11.1651C44.5749 11.2801 44.8799 11.4351 47.9099 9.27514C47.9313 9.26074 47.9565 9.25305 47.9824 9.25305C48.0082 9.25305 48.0334 9.26074 48.0549 9.27514C50.3499 10.9201 51.0849 11.2251 51.4049 11.2251C51.4807 11.2257 51.5552 11.2049 51.6199 11.1651C51.6937 11.1281 51.7555 11.0709 51.798 11C51.8405 10.9292 51.862 10.8477 51.8599 10.7651C51.7338 9.75872 51.5026 8.7683 51.1699 7.81014C51.0749 7.48014 50.9849 7.18014 50.9249 6.96014C50.9192 6.93807 50.9195 6.9149 50.9256 6.89296C50.9318 6.87102 50.9436 6.85109 50.9599 6.83514C51.1099 6.70514 51.3349 6.53014 51.5749 6.33514C52.4099 5.69514 53.3599 4.97514 53.3599 4.24514C53.3562 4.13227 53.3097 4.02503 53.2299 3.94514C53.0999 3.83014 52.9199 3.66514 49.8799 3.86514Z" fill="#D9A275"/>
</g>
<g clip-path="url(#clip4_25_6221)">
<path d="M63.8799 3.86514C63.8511 3.86742 63.8225 3.85971 63.7988 3.84331C63.7751 3.82691 63.7578 3.80283 63.7499 3.77514C62.8749 0.705144 62.4449 0.510144 62.2499 0.425144C62.184 0.394684 62.1124 0.378906 62.0399 0.378906C61.9673 0.378906 61.8957 0.394684 61.8299 0.425144C61.3299 0.665144 60.9149 1.69514 60.3299 3.52014L60.2449 3.78014C60.2388 3.8076 60.2225 3.83171 60.1993 3.84752C60.176 3.86332 60.1476 3.86963 60.1199 3.86514C57.0349 3.69014 56.8799 3.84014 56.7399 3.97014C56.6612 4.04877 56.6148 4.15402 56.6099 4.26514C56.6099 4.99014 57.5499 5.70514 58.3799 6.33514C58.6249 6.52514 58.8799 6.70514 59.0099 6.83514C59.0262 6.85 59.038 6.86906 59.0442 6.89023C59.0504 6.9114 59.0506 6.93386 59.0449 6.95514C58.9849 7.18014 58.8949 7.48014 58.7999 7.81514C58.4671 8.77157 58.2358 9.76034 58.1099 10.7651C58.1089 10.8475 58.1309 10.9285 58.1733 10.9991C58.2156 11.0697 58.2768 11.1272 58.3499 11.1651C58.5749 11.2801 58.8799 11.4351 61.9099 9.27514C61.9313 9.26074 61.9565 9.25305 61.9824 9.25305C62.0082 9.25305 62.0334 9.26074 62.0549 9.27514C64.3499 10.9201 65.0849 11.2251 65.4049 11.2251C65.4807 11.2257 65.5552 11.2049 65.6199 11.1651C65.6937 11.1281 65.7555 11.0709 65.798 11C65.8405 10.9292 65.862 10.8477 65.8599 10.7651C65.7338 9.75872 65.5026 8.7683 65.1699 7.81014C65.0749 7.48014 64.9849 7.18014 64.9249 6.96014C64.9192 6.93807 64.9195 6.9149 64.9256 6.89296C64.9318 6.87102 64.9436 6.85109 64.9599 6.83514C65.1099 6.70514 65.3349 6.53014 65.5749 6.33514C66.4099 5.69514 67.3599 4.97514 67.3599 4.24514C67.3562 4.13227 67.3097 4.02503 67.2299 3.94514C67.0999 3.83014 66.9199 3.66514 63.8799 3.86514Z" fill="#D9A275"/>
</g>
<defs>
<clipPath id="clip0_25_6221">
<rect width="12" height="12" fill="white"/>
</clipPath>
<clipPath id="clip1_25_6221">
<rect width="12" height="12" fill="white" transform="translate(14)"/>
</clipPath>
<clipPath id="clip2_25_6221">
<rect width="12" height="12" fill="white" transform="translate(28)"/>
</clipPath>
<clipPath id="clip3_25_6221">
<rect width="12" height="12" fill="white" transform="translate(42)"/>
</clipPath>
<clipPath id="clip4_25_6221">
<rect width="12" height="12" fill="white" transform="translate(56)"/>
</clipPath>
</defs>
</svg>
