<svg width="24" height="24" viewBox="0 0 24 24" fill="none" xmlns="http://www.w3.org/2000/svg">
<rect width="24" height="24" rx="12" fill="#D9A275"/>
<path d="M12 5C10.6155 5 9.26215 5.41054 8.11101 6.17971C6.95987 6.94888 6.06266 8.04213 5.53285 9.32122C5.00303 10.6003 4.86441 12.0078 5.13451 13.3656C5.4046 14.7235 6.07129 15.9708 7.05026 16.9497C8.02922 17.9287 9.2765 18.5954 10.6344 18.8655C11.9922 19.1356 13.3997 18.997 14.6788 18.4672C15.9579 17.9373 17.0511 17.0401 17.8203 15.889C18.5895 14.7378 19 13.3845 19 12C18.998 10.1441 18.2599 8.36479 16.9475 7.05247C15.6352 5.74015 13.8559 5.00201 12 5ZM17.0441 9.08333H15.1652C14.7446 8.10857 14.1908 7.19688 13.5196 6.37433C15.005 6.77854 16.2714 7.75186 17.0441 9.08333ZM14.625 12C14.6202 12.5939 14.5266 13.1838 14.3473 13.75H9.65267C9.47338 13.1838 9.37979 12.5939 9.375 12C9.37979 11.4061 9.47338 10.8162 9.65267 10.25H14.3473C14.5266 10.8162 14.6202 11.4061 14.625 12ZM10.1205 14.9167H13.8795C13.3844 15.8942 12.7514 16.7955 12 17.593C11.2483 16.7957 10.6153 15.8944 10.1205 14.9167ZM10.1205 9.08333C10.6156 8.10582 11.2486 7.20451 12 6.407C12.7517 7.20428 13.3847 8.10564 13.8795 9.08333H10.1205ZM10.4833 6.37433C9.81114 7.19671 9.25634 8.10841 8.83484 9.08333H6.95592C7.72933 7.75125 8.9968 6.77786 10.4833 6.37433ZM6.43559 10.25H8.44167C8.29044 10.8212 8.21204 11.4092 8.20834 12C8.21204 12.5908 8.29044 13.1788 8.44167 13.75H6.43559C6.07703 12.6109 6.07703 11.3891 6.43559 10.25ZM6.95592 14.9167H8.83484C9.25634 15.8916 9.81114 16.8033 10.4833 17.6257C8.9968 17.2221 7.72933 16.2487 6.95592 14.9167ZM13.5196 17.6257C14.1908 16.8031 14.7446 15.8914 15.1652 14.9167H17.0441C16.2714 16.2481 15.005 17.2215 13.5196 17.6257ZM17.5644 13.75H15.5583C15.7096 13.1788 15.788 12.5908 15.7917 12C15.788 11.4092 15.7096 10.8212 15.5583 10.25H17.5633C17.9218 11.3891 17.9218 12.6109 17.5633 13.75H17.5644Z" fill="white"/>
</svg>
